<svg width="8" height="6" viewBox="0 0 8 6" fill="none" xmlns="http://www.w3.org/2000/svg">
<path d="M3.31207 5.26819L0.348688 2.30481C0.247003 2.20312 0.196161 2.07965 0.196161 1.93439C0.196161 1.78912 0.247003 1.66565 0.348688 1.56396L0.849847 1.08459C0.951532 0.98291 1.07501 0.932068 1.22027 0.932068C1.36553 0.932068 1.48901 0.98291 1.59069 1.08459L3.68249 3.17639L5.77429 1.08459C5.87597 0.98291 5.99944 0.932068 6.14471 0.932068C6.28997 0.932068 6.41345 0.98291 6.51513 1.08459L7.01629 1.56396C7.11797 1.66565 7.16882 1.78912 7.16882 1.93439C7.16882 2.07965 7.11797 2.20312 7.01629 2.30481L4.05291 5.26819C3.95123 5.36987 3.82775 5.42072 3.68249 5.42072C3.53723 5.42072 3.41375 5.36987 3.31207 5.26819Z" fill="#362526"/>
</svg>
