<svg width="41" height="41" viewBox="0 0 41 41" fill="none" xmlns="http://www.w3.org/2000/svg">
<rect x="0.97998" y="0.669983" width="40" height="40" rx="20" fill="#362526"/>
<path d="M27.9022 25.5333C28.0299 25.6609 28.0937 25.8158 28.0937 25.9981C28.0937 26.1804 28.0299 26.3353 27.9022 26.463L27.1366 27.2286C27.009 27.3562 26.8541 27.42 26.6718 27.42C26.4895 27.42 26.3345 27.3562 26.2069 27.2286L23.4726 24.4942C23.345 24.3666 23.2812 24.2116 23.2812 24.0294V23.5919C22.2603 24.3939 21.0937 24.795 19.7812 24.795C18.2134 24.795 16.8736 24.239 15.7616 23.127C14.6496 22.015 14.0937 20.6752 14.0937 19.1075C14.0937 17.5398 14.6496 16.1999 15.7616 15.088C16.8736 13.976 18.2134 13.42 19.7812 13.42C21.3489 13.42 22.6887 13.976 23.8007 15.088C24.9127 16.1999 25.4687 17.5398 25.4687 19.1075C25.4687 20.42 25.0676 21.5866 24.2655 22.6075H24.703C24.8853 22.6075 25.0403 22.6713 25.1679 22.7989L27.9022 25.5333ZM17.2929 21.5958C17.9856 22.2702 18.815 22.6075 19.7812 22.6075C20.7473 22.6075 21.5676 22.2702 22.2421 21.5958C22.9348 20.9031 23.2812 20.0736 23.2812 19.1075C23.2812 18.1413 22.9348 17.321 22.2421 16.6465C21.5676 15.9538 20.7473 15.6075 19.7812 15.6075C18.815 15.6075 17.9856 15.9538 17.2929 16.6465C16.6184 17.321 16.2812 18.1413 16.2812 19.1075C16.2812 20.0736 16.6184 20.9031 17.2929 21.5958Z" fill="#F6AB4A"/>
</svg>
