<svg width="46" height="46" viewBox="0 0 46 46" fill="none" xmlns="http://www.w3.org/2000/svg">
<rect x="0.97998" y="0.169983" width="45" height="45" rx="22.5" fill="#EBEEF6"/>
<path d="M14.8936 17.2652C16.4625 15.6964 18.2967 14.6351 20.3961 14.0814C22.5187 13.5046 24.6297 13.5046 26.7292 14.0814C28.8518 14.6351 30.6975 15.6964 32.2663 17.2652C32.497 17.4959 32.5201 17.7612 32.3355 18.0612L30.8474 20.449C30.7321 20.6336 30.5475 20.7259 30.2937 20.7259C30.2245 20.7259 30.1553 20.7144 30.0861 20.6913L27.0753 19.48C26.8215 19.3878 26.6946 19.1917 26.6946 18.8917C26.6946 18.8687 26.6946 18.8571 26.6946 18.8571L26.9022 16.7807C24.6874 15.9732 22.4726 15.9732 20.2577 16.7807L20.4654 18.8571C20.4654 18.8571 20.4654 18.8687 20.4654 18.8917C20.4654 19.1917 20.3385 19.3878 20.0847 19.48L17.0739 20.6913C17.0047 20.7144 16.9354 20.7259 16.8662 20.7259C16.6125 20.7259 16.4279 20.6336 16.3125 20.449L14.8244 18.0612C14.7552 17.9458 14.7206 17.8304 14.7206 17.7151C14.7206 17.5305 14.7783 17.3806 14.8936 17.2652ZM18.0429 24.325C18.0429 24.6019 17.9044 24.7403 17.6276 24.7403H16.2433C15.9665 24.7403 15.828 24.6019 15.828 24.325V22.9407C15.828 22.6639 15.9665 22.5255 16.2433 22.5255H17.6276C17.9044 22.5255 18.0429 22.6639 18.0429 22.9407V24.325ZM21.3651 24.325C21.3651 24.6019 21.2267 24.7403 20.9499 24.7403H19.5656C19.2887 24.7403 19.1503 24.6019 19.1503 24.325V22.9407C19.1503 22.6639 19.2887 22.5255 19.5656 22.5255H20.9499C21.2267 22.5255 21.3651 22.6639 21.3651 22.9407V24.325ZM24.6874 24.325C24.6874 24.6019 24.549 24.7403 24.2721 24.7403H22.8878C22.611 24.7403 22.4726 24.6019 22.4726 24.325V22.9407C22.4726 22.6639 22.611 22.5255 22.8878 22.5255H24.2721C24.549 22.5255 24.6874 22.6639 24.6874 22.9407V24.325ZM28.0097 24.325C28.0097 24.6019 27.8712 24.7403 27.5944 24.7403H26.2101C25.9333 24.7403 25.7948 24.6019 25.7948 24.325V22.9407C25.7948 22.6639 25.9333 22.5255 26.2101 22.5255H27.5944C27.8712 22.5255 28.0097 22.6639 28.0097 22.9407V24.325ZM31.3319 24.325C31.3319 24.6019 31.1935 24.7403 30.9167 24.7403H29.5324C29.2555 24.7403 29.1171 24.6019 29.1171 24.325V22.9407C29.1171 22.6639 29.2555 22.5255 29.5324 22.5255H30.9167C31.1935 22.5255 31.3319 22.6639 31.3319 22.9407V24.325ZM19.704 27.6473C19.704 27.9241 19.5656 28.0626 19.2887 28.0626H17.9044C17.6276 28.0626 17.4892 27.9241 17.4892 27.6473V26.263C17.4892 25.9861 17.6276 25.8477 17.9044 25.8477H19.2887C19.5656 25.8477 19.704 25.9861 19.704 26.263V27.6473ZM23.0263 27.6473C23.0263 27.9241 22.8878 28.0626 22.611 28.0626H21.2267C20.9499 28.0626 20.8114 27.9241 20.8114 27.6473V26.263C20.8114 25.9861 20.9499 25.8477 21.2267 25.8477H22.611C22.8878 25.8477 23.0263 25.9861 23.0263 26.263V27.6473ZM26.3485 27.6473C26.3485 27.9241 26.2101 28.0626 25.9333 28.0626H24.549C24.2721 28.0626 24.1337 27.9241 24.1337 27.6473V26.263C24.1337 25.9861 24.2721 25.8477 24.549 25.8477H25.9333C26.2101 25.8477 26.3485 25.9861 26.3485 26.263V27.6473ZM29.6708 27.6473C29.6708 27.9241 29.5324 28.0626 29.2555 28.0626H27.8712C27.5944 28.0626 27.456 27.9241 27.456 27.6473V26.263C27.456 25.9861 27.5944 25.8477 27.8712 25.8477H29.2555C29.5324 25.8477 29.6708 25.9861 29.6708 26.263V27.6473ZM18.0429 30.9695C18.0429 31.2464 17.9044 31.3848 17.6276 31.3848H16.2433C15.9665 31.3848 15.828 31.2464 15.828 30.9695V29.5853C15.828 29.3084 15.9665 29.17 16.2433 29.17H17.6276C17.9044 29.17 18.0429 29.3084 18.0429 29.5853V30.9695ZM28.0097 30.9695C28.0097 31.2464 27.8712 31.3848 27.5944 31.3848H19.5656C19.2887 31.3848 19.1503 31.2464 19.1503 30.9695V29.5853C19.1503 29.3084 19.2887 29.17 19.5656 29.17H27.5944C27.8712 29.17 28.0097 29.3084 28.0097 29.5853V30.9695ZM31.3319 30.9695C31.3319 31.2464 31.1935 31.3848 30.9167 31.3848H29.5324C29.2555 31.3848 29.1171 31.2464 29.1171 30.9695V29.5853C29.1171 29.3084 29.2555 29.17 29.5324 29.17H30.9167C31.1935 29.17 31.3319 29.3084 31.3319 29.5853V30.9695Z" fill="#362526"/>
</svg>
